<?xml version="1.0" encoding="UTF-8" standalone="no"?><!DOCTYPE svg PUBLIC "-//W3C//DTD SVG 1.1//EN" "http://www.w3.org/Graphics/SVG/1.1/DTD/svg11.dtd"><svg width="100%" height="100%" viewBox="0 0 28 28" version="1.1" xmlns="http://www.w3.org/2000/svg" xmlns:xlink="http://www.w3.org/1999/xlink" xml:space="preserve" style="fill-rule:evenodd;clip-rule:evenodd;stroke-linecap:round;stroke-linejoin:round;stroke-miterlimit:10;"><path d="M22.658,12.235c-3.527,2.679 -8.958,1.464 -8.958,1.464c0,0 0.287,-5.558 3.813,-8.237c3.527,-2.679 8.959,-1.464 8.959,-1.464c0,0 -0.287,5.558 -3.814,8.237Z" style="fill:none;stroke:#d6af56;stroke-width:1.86px;"/><path d="M9.886,21.937c-3.527,2.679 -8.958,1.464 -8.958,1.464c0,0 0.287,-5.558 3.813,-8.237c3.527,-2.679 8.959,-1.464 8.959,-1.464c0,0 -0.287,5.558 -3.814,8.237Z" style="fill:none;stroke:#d6af56;stroke-width:1.86px;"/><path d="M15.164,22.658c-2.679,-3.527 -1.464,-8.958 -1.464,-8.958c0,0 5.558,0.287 8.237,3.813c2.679,3.527 1.464,8.959 1.464,8.959c0,0 -5.558,-0.287 -8.237,-3.814Z" style="fill:none;stroke:#d6af56;stroke-width:1.86px;"/><path d="M5.462,9.886c-2.678,-3.527 -1.464,-8.958 -1.464,-8.958c0,0 5.559,0.287 8.238,3.813c2.678,3.527 1.463,8.959 1.463,8.959c0,0 -5.558,-0.287 -8.237,-3.814Z" style="fill:none;stroke:#d6af56;stroke-width:1.86px;"/></svg>