<?xml version="1.0" ?><svg enable-background="new 0 0 32 32" version="1.1" viewBox="0 0 32 32" xml:space="preserve" xmlns="http://www.w3.org/2000/svg" xmlns:xlink="http://www.w3.org/1999/xlink"><g id="Layer_4_copy"><g><rect height="28.75" width="28.75" x="1.625" y="1.625"/><polygon fill="#FFFFFF" opacity="0.22" points="1.625,1.625 14.667,1.625 1.625,14.347   "/></g></g><g id="Official_copy_2"><path d="M23.17,12.834c0,4.173-2.32,7.292-5.741,7.292c-1.149,0-2.229-0.621-2.599-1.327   c0,0-0.618,2.451-0.748,2.925c-0.461,1.672-1.816,3.344-1.921,3.482c-0.074,0.095-0.236,0.065-0.253-0.061   c-0.029-0.213-0.375-2.323,0.032-4.043c0.204-0.864,1.368-5.797,1.368-5.797s-0.339-0.679-0.339-1.683   c0-1.577,0.914-2.754,2.052-2.754c0.968,0,1.435,0.726,1.435,1.597c0,0.973-0.619,2.428-0.939,3.775   c-0.267,1.129,0.566,2.05,1.679,2.05c2.016,0,3.373-2.59,3.373-5.657c0-2.331-1.57-4.077-4.427-4.077   c-3.227,0-5.238,2.407-5.238,5.096c0,0.927,0.274,1.581,0.702,2.086c0.196,0.233,0.224,0.326,0.153,0.593   c-0.052,0.196-0.168,0.667-0.217,0.854c-0.07,0.27-0.289,0.366-0.532,0.266c-1.486-0.607-2.179-2.235-2.179-4.065   c0-3.022,2.549-6.646,7.604-6.646C20.497,6.739,23.17,9.677,23.17,12.834z" fill="#FFFFFF"/></g></svg>