<?xml version="1.0" encoding="UTF-8" standalone="no"?><!DOCTYPE svg PUBLIC "-//W3C//DTD SVG 1.1//EN" "http://www.w3.org/Graphics/SVG/1.1/DTD/svg11.dtd"><svg width="100%" height="100%" viewBox="0 0 21 21" version="1.1" xmlns="http://www.w3.org/2000/svg" xmlns:xlink="http://www.w3.org/1999/xlink" xml:space="preserve" style="fill-rule:evenodd;clip-rule:evenodd;stroke-linecap:round;stroke-linejoin:round;stroke-miterlimit:10;"><path d="M15.29,3.046c-0.996,-1.922 -3.361,-2.673 -5.283,-1.678c-1.922,0.996 -2.673,3.361 -1.678,5.284l1.803,3.48l3.481,-1.803c1.922,-0.996 2.673,-3.361 1.677,-5.283Z" style="fill:none;stroke:#d6af56;stroke-width:1.86px;"/><path d="M18.895,10.006c0.996,1.922 0.245,4.287 -1.678,5.283c-1.922,0.996 -4.287,0.245 -5.283,-1.677l-1.802,-3.481l3.48,-1.803c1.922,-0.995 4.287,-0.244 5.283,1.678Z" style="fill:none;stroke:#d6af56;stroke-width:1.86px;"/><path d="M1.368,10.257c-0.996,-1.922 -0.245,-4.287 1.678,-5.283c1.922,-0.996 4.287,-0.245 5.283,1.677l1.802,3.481l-3.48,1.803c-1.922,0.995 -4.287,0.244 -5.283,-1.678Z" style="fill:none;stroke:#d6af56;stroke-width:1.86px;"/><path d="M4.974,17.218c0.996,1.922 3.361,2.673 5.283,1.678c1.922,-0.996 2.673,-3.361 1.678,-5.284l-1.803,-3.48l-3.481,1.803c-1.922,0.996 -2.673,3.361 -1.677,5.283Z" style="fill:none;stroke:#d6af56;stroke-width:1.86px;"/></svg>