<?xml version="1.0" encoding="UTF-8" standalone="no"?><!DOCTYPE svg PUBLIC "-//W3C//DTD SVG 1.1//EN" "http://www.w3.org/Graphics/SVG/1.1/DTD/svg11.dtd"><svg width="100%" height="100%" viewBox="0 0 35 35" version="1.1" xmlns="http://www.w3.org/2000/svg" xmlns:xlink="http://www.w3.org/1999/xlink" xml:space="preserve" style="fill-rule:evenodd;clip-rule:evenodd;stroke-linecap:round;stroke-linejoin:round;stroke-miterlimit:10;"><path d="M28.496,6.034c-1.282,-3.708 -5.327,-5.674 -9.034,-4.393c-3.708,1.282 -5.675,5.327 -4.393,9.035l2.321,6.713l6.713,-2.321c3.708,-1.281 5.675,-5.326 4.393,-9.034Z" style="fill:none;stroke:#d6af56;stroke-width:2.5px;"/><path d="M33.138,19.462c1.282,3.708 -0.685,7.753 -4.393,9.034c-3.708,1.282 -7.752,-0.684 -9.034,-4.392l-2.321,-6.714l6.714,-2.321c3.707,-1.281 7.752,0.685 9.034,4.393Z" style="fill:none;stroke:#d6af56;stroke-width:2.5px;"/><path d="M1.642,15.318c-1.282,-3.708 0.685,-7.753 4.393,-9.034c3.707,-1.282 7.752,0.684 9.034,4.392l2.321,6.714l-6.714,2.321c-3.707,1.281 -7.752,-0.685 -9.034,-4.393Z" style="fill:none;stroke:#d6af56;stroke-width:2.5px;"/><path d="M6.284,28.745c1.282,3.708 5.327,5.674 9.034,4.393c3.708,-1.282 5.675,-5.327 4.393,-9.035l-2.321,-6.713l-6.713,2.321c-3.708,1.281 -5.675,5.326 -4.393,9.034Z" style="fill:none;stroke:#d6af56;stroke-width:2.5px;"/><path d="M21.529,14.368c-1.093,2.249 -4.139,3.022 -4.139,3.022c0,0 -1.272,-2.873 -0.179,-5.122c1.093,-2.248 4.138,-3.021 4.138,-3.021c0,0 1.273,2.872 0.18,5.121Z" style="fill:none;stroke:#d6af56;stroke-width:2.5px;"/><path d="M17.569,22.511c-1.093,2.249 -4.139,3.022 -4.139,3.022c0,0 -1.272,-2.873 -0.179,-5.122c1.093,-2.248 4.138,-3.021 4.138,-3.021c0,0 1.273,2.872 0.18,5.121Z" style="fill:none;stroke:#d6af56;stroke-width:2.5px;"/><path d="M20.412,21.528c-2.249,-1.093 -3.022,-4.139 -3.022,-4.139c0,0 2.873,-1.272 5.122,-0.179c2.248,1.093 3.021,4.138 3.021,4.138c0,0 -2.872,1.273 -5.121,0.18Z" style="fill:none;stroke:#d6af56;stroke-width:2.5px;"/><path d="M12.269,17.569c-2.249,-1.093 -3.022,-4.139 -3.022,-4.139c0,0 2.873,-1.272 5.122,-0.179c2.248,1.093 3.021,4.138 3.021,4.138c0,0 -2.872,1.273 -5.121,0.18Z" style="fill:none;stroke:#d6af56;stroke-width:2.5px;"/></svg>