<svg xmlns="http://www.w3.org/2000/svg" width="30.648" height="30.648" viewBox="-6.324 -6.324 30.648 30.648" enable-background="new -6.324 -6.324 30.648 30.648"><path fill="#fff" d="M9-5.474c7.994 0 14.475 6.48 14.475 14.474S16.995 23.475 9 23.475C1.006 23.475-5.474 16.995-5.474 9-5.474 1.006 1.006-5.474 9-5.474m0-.85C.55-6.324-6.324.55-6.324 9S.55 24.324 9 24.324c8.45 0 15.324-6.874 15.324-15.324S17.45-6.324 9-6.324z"/><g fill="#fff"><path d="M-1.982 18.492c.234.266.478.523.73.77l.012-.034c-.252-.252-.492-.518-.726-.787-.005.018-.01.037-.016.052zM20.552 17.72l.01.063c.272-.352.53-.717.77-1.092-.004-.027-.01-.058-.017-.085-.24.384-.493.754-.763 1.114zM17.175 4.495c-.22-.542-.44-1.086-.657-1.628.772-1.787 1.4-3.403 1.89-4.862-.255-.22-.517-.43-.787-.63-.44 1.338-.985 2.767-1.602 4.238-.88-2.226-1.666-4.378-2.145-6.243-.348-.124-.7-.234-1.06-.332.516 2.24 1.517 4.904 2.678 7.8-2.273 5.2-5.227 10.654-7.093 13.86-1.667-2.16-4.348-5.917-6.25-9.38.74-3.515 1.102-6.86.214-8.114-.23-.327-.765-.826-1.752-.492C-.15-1.033-.667-.5-.89.248c-.434 1.468.253 3.89 2.043 7.223-.424 1.96-1.01 4.213-1.75 6.69-.43 1.44-.895 2.887-1.368 4.28.233.272.474.536.726.788.533-1.547 1.057-3.17 1.544-4.802.485-1.624 1.056-3.66 1.538-5.726.39.674.82 1.382 1.29 2.122 2.37 3.728 4.927 6.968 4.953 7l.424.536.348-.588c.033-.056 3.324-5.623 6.236-11.772.314-.663.61-1.307.895-1.933.103.26.21.52.315.782 1.842 4.54 3.73 9.197 4.248 12.87.27-.356.524-.728.762-1.112-.697-3.62-2.437-7.912-4.14-12.11zm-15.722 1.5C.325 3.728-.34 1.705.013.515c.136-.462.42-.752.895-.912.128-.044.232-.06.316-.06.202 0 .297.1.37.205.54.762.47 2.992-.14 6.247zM7.91 7.388h3.223V6.365H7.91V4.622h3.634V3.6H6.788v6.39H7.91z"/></g></svg>